<svg viewBox="0 0 512 512" width="512" height="512" xmlns="http://www.w3.org/2000/svg">
  <!-- Background Circle -->
  <circle cx="256" cy="256" r="240" fill="#3b82f6" opacity="0.1"/>
  
  <!-- Clipboard/Paper Background -->
  <rect x="85" y="43" width="342" height="426" rx="43" ry="43" fill="#ffffff" stroke="#374151" stroke-width="16"/>
  
  <!-- Clipboard Top -->
  <rect x="171" y="21" width="170" height="64" rx="21" ry="21" fill="#9ca3af" stroke="#374151" stroke-width="12"/>
  <circle cx="256" cy="53" r="16" fill="#374151"/>
  
  <!-- Shadow for depth -->
  <rect x="95" y="53" width="342" height="426" rx="43" ry="43" fill="#000000" opacity="0.05" transform="translate(8, 8)"/>
  
  <!-- Todo Items -->
  <!-- First item - checked -->
  <rect x="149" y="149" width="43" height="43" rx="6" fill="#f3f4f6" stroke="#374151" stroke-width="12"/>
  <path d="M156 171 L171 186 L192 156" stroke="#10b981" stroke-width="16" fill="none" stroke-linecap="round" stroke-linejoin="round"/>
  <rect x="235" y="160" width="128" height="21" rx="10" fill="#e5e7eb"/>
  
  <!-- Second item - checked -->
  <rect x="149" y="235" width="43" height="43" rx="6" fill="#f3f4f6" stroke="#374151" stroke-width="12"/>
  <path d="M156 256 L171 271 L192 241" stroke="#10b981" stroke-width="16" fill="none" stroke-linecap="round" stroke-linejoin="round"/>
  <rect x="235" y="245" width="149" height="21" rx="10" fill="#e5e7eb"/>
  
  <!-- Third item - unchecked -->
  <rect x="149" y="320" width="43" height="43" rx="6" fill="#ffffff" stroke="#374151" stroke-width="12"/>
  <rect x="235" y="331" width="171" height="21" rx="10" fill="#d1d5db"/>
  
  <!-- Decorative elements -->
  <circle cx="384" cy="384" r="96" fill="#10b981" opacity="0.1"/>
  <path d="M341 384 L363 406 L427 341" stroke="#10b981" stroke-width="24" fill="none" stroke-linecap="round" stroke-linejoin="round"/>
</svg>